<?xml version="1.0" encoding="UTF-8"?>
<svg version="1.1" xmlns="http://www.w3.org/2000/svg" width="200" height="264">
<path d="M0 0 C4.237041 1.52923089 6.27182745 4.6756539 8.8125 8.1875 C22.20517797 26.0176575 40.24365814 37.62942338 62.40234375 41.28198242 C75.21736237 43.04110826 88.17617727 42.17863498 101 41 C101.63509105 85.11440125 101.63509105 85.11440125 98 104 C97.82307617 104.95068359 97.64615234 105.90136719 97.46386719 106.88085938 C90.54201252 143.34313355 75.41082421 177.73560597 54 208 C53.27997803 209.02528809 53.27997803 209.02528809 52.54541016 210.07128906 C47.4815536 217.25012151 42.27720487 224.13283023 36.265625 230.55859375 C34.40431957 232.56431081 32.61558492 234.60200206 30.83203125 236.67578125 C26.56623033 241.56655568 22.02318652 246.16071121 17.4375 250.75 C16.2009668 252.00490234 16.2009668 252.00490234 14.93945312 253.28515625 C4.28051949 263.96965088 4.28051949 263.96965088 -0.0546875 264.02734375 C-5.40260259 261.20304321 -9.67984805 256.18874048 -14 252 C-14.71687988 251.30503418 -15.43375977 250.61006836 -16.17236328 249.89404297 C-24.97217857 241.31837921 -33.54110243 232.78431857 -41 223 C-41.78117187 222.02417969 -42.56234375 221.04835937 -43.3671875 220.04296875 C-76.12592087 178.90977402 -99.43054912 124.37715757 -99.09765625 71.2734375 C-99.0962413 70.39974518 -99.09482635 69.52605286 -99.09336853 68.62588501 C-99.08783674 65.87555297 -99.07529774 63.12530682 -99.0625 60.375 C-99.05747616 58.49349077 -99.05291481 56.61198025 -99.04882812 54.73046875 C-99.03788979 50.15361348 -99.02067362 45.57682123 -99 41 C-98.24396484 41.06856201 -97.48792969 41.13712402 -96.70898438 41.20776367 C-69.65837306 43.57575214 -43.84147594 41.89741579 -22 24 C-21.18144531 23.34515625 -20.36289063 22.6903125 -19.51953125 22.015625 C-11.92145964 15.58927509 -6.02676518 7.85964738 0 0 Z " fill="#0E0E0E" transform="translate(99,0)"/>
<path d="M0 0 C2.99501703 -0.45535525 5.19208215 -0.46502988 7.86035156 1.07080078 C10.00548168 2.67350263 12.06876811 4.34715897 14.125 6.0625 C15.72247376 7.35080135 17.32149016 8.6371917 18.921875 9.921875 C19.75138672 10.59283203 20.58089844 11.26378906 21.43554688 11.95507812 C25.67666811 15.33699277 30.0246666 18.57306562 34.375 21.8125 C36.04427948 23.05988426 37.71355056 24.30727977 39.3828125 25.5546875 C40.5589209 26.43205566 40.5589209 26.43205566 41.75878906 27.32714844 C44.92670798 29.69169968 48.08858904 32.06425915 51.25 34.4375 C52.18328125 35.13746094 53.1165625 35.83742187 54.078125 36.55859375 C54.71234375 37.03425781 55.3465625 37.50992188 56 38 C54.84535235 41.01865282 53.62052637 43.80438454 51.9375 46.5625 C47.94163732 53.65193378 47.82276225 62.04049426 49 70 C51.27710248 77.94007379 55.70006384 85.83058675 63 90 C72.14248929 95.02231002 80.73448146 96.70226154 90.984375 94.30078125 C98.81807368 91.73643514 105.21367799 87.77089455 110 81 C113.1605642 82.46024642 115.81325877 84.24060595 118.58984375 86.3359375 C119.89018555 87.31433594 119.89018555 87.31433594 121.21679688 88.3125 C122.11462891 88.993125 123.01246094 89.67375 123.9375 90.375 C124.83146484 91.04789062 125.72542969 91.72078125 126.64648438 92.4140625 C130.8099176 95.55441005 134.95536357 98.70687221 139 102 C138.42154126 107.05652725 136.08470982 110.95766492 133.625 115.3125 C133.18019287 116.10430664 132.73538574 116.89611328 132.27709961 117.71191406 C119.07863078 140.82248599 101.8811712 160.4153917 83 179 C50.07064469 163.88011942 24.51201847 108.90357324 12.6875 77.125 C3.80383281 52.27175036 -0.82231002 26.37483245 0 0 Z " fill="#FBFBFB" transform="translate(18,61)"/>
<path d="M0 0 C3.20299264 1.41643452 5.36084202 3.14127782 7.875 5.5625 C29.01812877 24.66063762 55.28095161 30.8412279 83 32 C83.97333281 60.87554011 79.03916331 92.92167338 66 119 C62.64114398 118.38963984 60.64867421 117.19864914 57.98828125 115.0859375 C57.22966797 114.48910156 56.47105469 113.89226562 55.68945312 113.27734375 C54.90505859 112.64957031 54.12066406 112.02179688 53.3125 111.375 C52.16491211 110.46814453 52.16491211 110.46814453 50.99414062 109.54296875 C49.44387769 108.3179084 47.89952586 107.08533182 46.36108398 105.84545898 C44.76090765 104.59473694 43.12250841 103.39170342 41.45336914 102.23461914 C35.26387719 97.86249612 35.26387719 97.86249612 33.89453125 93.38671875 C33.86746094 92.16597656 33.84039062 90.94523437 33.8125 89.6875 C32.99529382 79.46737822 29.02860389 73.25691909 21.41796875 66.5703125 C13.8125543 61.63109342 8.14877727 60.66306437 -0.8125 61.3125 C-9.40366936 61.5865654 -14.39385116 60.90700879 -20.9453125 54.90625 C-21.41485352 54.44734375 -21.88439453 53.9884375 -22.36816406 53.515625 C-25.74083347 50.38313971 -29.47604134 47.67439479 -33.125 44.875 C-33.89859863 44.26994629 -34.67219727 43.66489258 -35.46923828 43.04150391 C-40.33984392 39.23240042 -45.26696795 35.61686268 -50.4453125 32.234375 C-50.95835938 31.82703125 -51.47140625 31.4196875 -52 31 C-52 30.34 -52 29.68 -52 29 C-51.030625 28.731875 -50.06125 28.46375 -49.0625 28.1875 C-29.920585 22.6794688 -14.62890741 13.5814054 0 0 Z " fill="#FAFAFA" transform="translate(99,29)"/>
<path d="M0 0 C4.237041 1.52923089 6.27182745 4.6756539 8.8125 8.1875 C22.20517797 26.0176575 40.24365814 37.62942338 62.40234375 41.28198242 C75.21736237 43.04110826 88.17617727 42.17863498 101 41 C101.63509105 85.11440125 101.63509105 85.11440125 98 104 C97.82307617 104.95068359 97.64615234 105.90136719 97.46386719 106.88085938 C90.54201252 143.34313355 75.41082421 177.73560597 54 208 C53.27997803 209.02528809 53.27997803 209.02528809 52.54541016 210.07128906 C47.4815536 217.25012151 42.27720487 224.13283023 36.265625 230.55859375 C34.40431957 232.56431081 32.61558492 234.60200206 30.83203125 236.67578125 C26.56623033 241.56655568 22.02318652 246.16071121 17.4375 250.75 C16.2009668 252.00490234 16.2009668 252.00490234 14.93945312 253.28515625 C4.28051949 263.96965088 4.28051949 263.96965088 -0.0546875 264.02734375 C-5.40260259 261.20304321 -9.67984805 256.18874048 -14 252 C-14.71687988 251.30503418 -15.43375977 250.61006836 -16.17236328 249.89404297 C-24.97217857 241.31837921 -33.54110243 232.78431857 -41 223 C-41.78117187 222.02417969 -42.56234375 221.04835937 -43.3671875 220.04296875 C-76.12592087 178.90977402 -99.43054912 124.37715757 -99.09765625 71.2734375 C-99.0962413 70.39974518 -99.09482635 69.52605286 -99.09336853 68.62588501 C-99.08783674 65.87555297 -99.07529774 63.12530682 -99.0625 60.375 C-99.05747616 58.49349077 -99.05291481 56.61198025 -99.04882812 54.73046875 C-99.03788979 50.15361348 -99.02067362 45.57682123 -99 41 C-98.24396484 41.06856201 -97.48792969 41.13712402 -96.70898438 41.20776367 C-69.65837306 43.57575214 -43.84147594 41.89741579 -22 24 C-21.18144531 23.34515625 -20.36289063 22.6903125 -19.51953125 22.015625 C-11.92145964 15.58927509 -6.02676518 7.85964738 0 0 Z M0 14 C-1.53457367 15.51719983 -1.53457367 15.51719983 -3.125 17.5 C-19.77385267 36.96371024 -41.72289791 48.33359329 -67.24682617 50.80151367 C-71.87367534 51.13508008 -76.48866946 51.10482605 -81.125 51.0625 C-82.55972656 51.05573242 -82.55972656 51.05573242 -84.0234375 51.04882812 C-86.34902758 51.03720017 -88.6744776 51.02086102 -91 51 C-91.4242787 67.91675336 -90.61042263 84.27417331 -88 101 C-87.8151001 102.21550537 -87.8151001 102.21550537 -87.62646484 103.45556641 C-80.80848004 146.12501613 -59.40282192 187.0572574 -32 220 C-31.58588867 220.5043457 -31.17177734 221.00869141 -30.74511719 221.52832031 C-24.65998505 228.91961569 -18.26692054 235.91288278 -11.5 242.6875 C-10.81744141 243.37086426 -10.13488281 244.05422852 -9.43164062 244.75830078 C-6.41095409 247.74517366 -3.44468062 250.50090873 0 253 C12.42311757 247.26416235 23.57454493 233.18678255 31.90234375 222.65234375 C33.27967745 220.9107989 34.68805208 219.19327472 36.12890625 217.50390625 C47.1401256 204.56227636 56.07406839 189.99430341 64 175 C64.35046387 174.33758301 64.70092773 173.67516602 65.06201172 172.99267578 C82.86841017 139.02998772 93.35525866 101.25396393 93.0625 62.8125 C93.05573242 61.09836914 93.05573242 61.09836914 93.04882812 59.34960938 C93.03718268 56.5663489 93.02082997 53.78320428 93 51 C92.37657715 51.01047363 91.7531543 51.02094727 91.11083984 51.03173828 C62.00907113 51.45536823 35.15897494 47.21673375 13.32373047 26.39892578 C9.76183907 22.88916515 6.40176196 19.22953642 3.26953125 15.328125 C2.85058594 14.88984375 2.43164062 14.4515625 2 14 C1.34 14 0.68 14 0 14 Z " fill="#030303" transform="translate(99,0)"/>
<path d="M0 0 C8.47914213 5.01253153 14.7670613 11.78486699 17.921875 21.26953125 C19.97829278 32.68264994 18.1798151 42.72489981 11.99609375 52.5234375 C6.87896006 59.20049514 -1.45273283 64.04177675 -9.6875 65.4375 C-20.80900992 66.53166472 -30.01891835 64.30489648 -39 57.5 C-45.67455081 51.00735519 -49.89367959 42.53795627 -50.36743164 33.25219727 C-50.40904753 21.89911299 -47.22048943 13.87293808 -39.27734375 5.7109375 C-28.33553756 -3.89408694 -13.31083128 -6.19613351 0 0 Z " fill="#4C221C" transform="translate(115.6875,91.5625)"/>
<path d="M0 0 C0.66 0 1.32 0 2 0 C3.4453125 1.46875 3.4453125 1.46875 5.125 3.5 C21.11361691 22.19184698 42.93401531 34.65011463 67.74609375 36.86816406 C76.14453637 37.35940746 84.59271032 37.1412442 93 37 C93.4242787 53.91675336 92.61042263 70.27417331 90 87 C89.8151001 88.21550537 89.8151001 88.21550537 89.62646484 89.45556641 C82.22756619 135.7605881 57.73836363 180.90144495 26 215 C24.91259634 216.26735226 23.82914406 217.53810738 22.75 218.8125 C19.42369223 222.63188398 15.88415303 226.22450414 12.3125 229.8125 C11.47380371 230.65808472 11.47380371 230.65808472 10.61816406 231.52075195 C7.88108591 234.24758041 5.1867596 236.79020319 2 239 C-11.72839528 232.64537162 -23.94799925 216.69914046 -33 205 C-33.99280673 203.75856818 -34.98634783 202.51772343 -35.98046875 201.27734375 C-70.00705951 158.34221643 -91.48225604 103.92969646 -91.0625 48.8125 C-91.05798828 47.66974609 -91.05347656 46.52699219 -91.04882812 45.34960938 C-91.03718268 42.5663489 -91.02082997 39.78320428 -91 37 C-90.16359985 37.01571045 -90.16359985 37.01571045 -89.31030273 37.03173828 C-56.23277586 37.56858977 -30.13610301 30.21041143 -5.8515625 6.94140625 C-2.5063278 3.78560031 -2.5063278 3.78560031 0 0 Z M-2.328125 10.30859375 C-3.30216747 11.35148393 -4.2761193 12.39445875 -5.25 13.4375 C-23.29382276 32.08241587 -48.09430104 40.94190438 -73.625 41.625 C-74.81996094 41.66367187 -76.01492187 41.70234375 -77.24609375 41.7421875 C-80.16391736 41.83555786 -83.08174921 41.92133578 -86 42 C-87.34007608 89.20045758 -73.57925107 136.27681188 -48 176 C-47.57251465 176.66402832 -47.1450293 177.32805664 -46.70458984 178.01220703 C-33.44573362 198.36472328 -17.24664728 216.0001251 0 233 C3.28673738 231.5609916 5.47727154 229.77989422 8.01171875 227.25390625 C8.76533691 226.50431641 9.51895508 225.75472656 10.29541016 224.98242188 C11.0847998 224.18384766 11.87418945 223.38527344 12.6875 222.5625 C13.90252197 221.33950195 13.90252197 221.33950195 15.14208984 220.09179688 C20.82667914 214.31675792 26.05351496 208.42101864 31 202 C31.89912109 200.93652344 31.89912109 200.93652344 32.81640625 199.8515625 C56.2155815 172.00703245 71.30115169 138.77564511 81 104 C81.26361328 103.0836377 81.52722656 102.16727539 81.79882812 101.22314453 C83.46001244 95.3484995 84.73422894 89.53807869 85.625 83.5 C85.74979736 82.67032715 85.87459473 81.8406543 86.00317383 80.98583984 C86.34653618 78.65863142 86.67688346 76.33009497 87 74 C87.20302734 72.54980469 87.20302734 72.54980469 87.41015625 71.0703125 C88.50096346 61.4527729 88.08747565 51.66404083 88 42 C87.30140869 41.9906543 86.60281738 41.98130859 85.88305664 41.97167969 C52.93874668 41.41976713 27.5808676 34.27460534 4 9.9375 C1.04386525 7.07374446 0.58680392 7.41811893 -2.328125 10.30859375 Z " fill="#F0F0F0" transform="translate(99,14)"/>
<path d="M0 0 C4.72627697 0.14322051 7.1279609 2.42845758 10.22265625 5.69921875 C18.33833395 16.20500813 20.0169128 27.04088053 19 40 C18.13426945 43.09189482 17.09335312 45.90365973 15.77734375 48.828125 C14.70081719 51.13148395 14.70081719 51.13148395 16 54 C12.05593524 57.15525181 9.37304141 58.65048841 4.1015625 58.40625 C0.38173684 57.68717589 -2.76983054 55.92435628 -6 54 C-2.74820188 56.21713508 0.4213696 58.34832443 4 60 C4 60.66 4 61.32 4 62 C-15.98403694 61.5314411 -15.98403694 61.5314411 -24 57 C-24.66 56.01 -25.32 55.02 -26 54 C-26.598125 53.7525 -27.19625 53.505 -27.8125 53.25 C-31.15065012 51.34248564 -33.09943239 48.30262568 -35 45 C-35 44.34 -35 43.68 -35 43 C-33.50726563 42.79697266 -33.50726563 42.79697266 -31.984375 42.58984375 C-17.97526506 40.49807021 -4.66260095 36.37992797 8 30 C8.66 30 9.32 30 10 30 C9.39553055 21.5374277 7.04241188 16.00208396 1.125 9.875 C-0.71484375 7.8984375 -0.71484375 7.8984375 -2 6 C-1.4375 2.5 -1.4375 2.5 0 0 Z " fill="#8E3227" transform="translate(106,94)"/>
<path d="M0 0 C2.99501703 -0.45535525 5.19208215 -0.46502988 7.86035156 1.07080078 C10.00548168 2.67350263 12.06876811 4.34715897 14.125 6.0625 C15.72247376 7.35080135 17.32149016 8.6371917 18.921875 9.921875 C19.75138672 10.59283203 20.58089844 11.26378906 21.43554688 11.95507812 C25.67666811 15.33699277 30.0246666 18.57306562 34.375 21.8125 C36.04427948 23.05988426 37.71355056 24.30727977 39.3828125 25.5546875 C40.5589209 26.43205566 40.5589209 26.43205566 41.75878906 27.32714844 C44.92670798 29.69169968 48.08858904 32.06425915 51.25 34.4375 C52.18328125 35.13746094 53.1165625 35.83742187 54.078125 36.55859375 C54.71234375 37.03425781 55.3465625 37.50992188 56 38 C54.63408831 41.54243452 53.09068516 44.92627929 51.375 48.3125 C50.92898437 49.19550781 50.48296875 50.07851562 50.0234375 50.98828125 C49.68570313 51.65214844 49.34796875 52.31601563 49 53 C43.46147009 50.16919582 38.97541909 46.59846664 34.2109375 42.6171875 C30.63038434 39.66012498 26.91436985 36.89382512 23.1875 34.125 C17.75901623 30.08678524 12.37947488 25.99668899 7.0625 21.8125 C6.46526123 21.34279785 5.86802246 20.8730957 5.25268555 20.38916016 C1.14472862 17.14472862 1.14472862 17.14472862 0 16 C-0.07319621 13.30345146 -0.09242537 10.63308542 -0.0625 7.9375 C-0.05798828 7.17888672 -0.05347656 6.42027344 -0.04882812 5.63867188 C-0.0370068 3.75908129 -0.01907078 1.87953101 0 0 Z " fill="#FBCB03" transform="translate(18,61)"/>
<path d="M0 0 C4.876139 0.73554242 8.11683397 3.7251931 11.94140625 6.703125 C12.77389893 7.333396 13.6063916 7.96366699 14.46411133 8.61303711 C20.37453767 13.11291172 26.20901395 17.71885012 31.93139648 22.45605469 C36.06892278 25.84891053 40.41212466 28.70933697 45.00390625 31.453125 C40.00390625 34.78645833 35.00390625 38.11979167 30.00390625 41.453125 C21.78235917 35.32260724 13.61916789 29.11887871 5.48046875 22.87890625 C2.4200156 20.53327884 -0.64841811 18.19862263 -3.72265625 15.87109375 C-4.4906958 15.28811523 -5.25873535 14.70513672 -6.05004883 14.10449219 C-7.51942959 12.98947187 -8.99053342 11.87671736 -10.46362305 10.76660156 C-13.87236371 8.17534915 -17.06473443 5.5954819 -19.99609375 2.453125 C-17.28824381 2.11539761 -14.57992379 1.78281813 -11.87109375 1.453125 C-11.11054687 1.35773437 -10.35 1.26234375 -9.56640625 1.1640625 C-8.0627038 0.98258117 -6.55711237 0.81608871 -5.05004883 0.66503906 C-3.36113081 0.49078721 -1.67879228 0.25389818 0 0 Z " fill="#049846" transform="translate(43.99609375,58.546875)"/>
<path d="M0 0 C1.85776765 3.13498292 2.20140476 5.37471432 2 9 C-26.63673765 21.20919593 -26.63673765 21.20919593 -38.8125 21.0625 C-39.78832031 21.05347656 -40.76414062 21.04445312 -41.76953125 21.03515625 C-42.50558594 21.02355469 -43.24164063 21.01195312 -44 21 C-45.20319 17.39043001 -46.12543318 13.68774018 -45 10 C-33.26725716 0.49122483 -14.51617919 -0.470795 0 0 Z " fill="#8E3227" transform="translate(113,114)"/>
<path d="M0 0 C3.1605642 1.46024642 5.81325877 3.24060595 8.58984375 5.3359375 C9.45673828 5.98820313 10.32363281 6.64046875 11.21679688 7.3125 C12.11462891 7.993125 13.01246094 8.67375 13.9375 9.375 C14.83146484 10.04789063 15.72542969 10.72078125 16.64648438 11.4140625 C20.8099176 14.55441005 24.95536357 17.70687221 29 21 C28.41892368 24.7602985 27.34800504 27.53035032 25.4375 30.8125 C24.98246094 31.60269531 24.52742188 32.39289063 24.05859375 33.20703125 C23.70925781 33.79871094 23.35992187 34.39039063 23 35 C19.57566454 35 19.04646197 34.54625597 16.4453125 32.5078125 C15.75373047 31.97196533 15.06214844 31.43611816 14.34960938 30.8840332 C13.61548828 30.30355225 12.88136719 29.72307129 12.125 29.125 C10.59640542 27.93352799 9.06775898 26.74212251 7.5390625 25.55078125 C6.77754883 24.95346191 6.01603516 24.35614258 5.23144531 23.74072266 C3.17478778 22.13634977 1.104426 20.55308791 -0.9765625 18.98046875 C-1.57484863 18.52720215 -2.17313477 18.07393555 -2.78955078 17.60693359 C-4.41148431 16.3794869 -6.03385459 15.15261738 -7.65625 13.92578125 C-10 12 -10 12 -11 10 C-10.18595703 9.41992188 -10.18595703 9.41992188 -9.35546875 8.828125 C-8.64003906 8.30734375 -7.92460938 7.7865625 -7.1875 7.25 C-6.47980469 6.73953125 -5.77210937 6.2290625 -5.04296875 5.703125 C-2.97022309 3.97517642 -1.52624146 2.21473524 0 0 Z " fill="#FACA03" transform="translate(128,142)"/>
<path d="M0 0 C4.24540632 2.76874325 8.31181666 5.698846 12.3125 8.8125 C13.15627197 9.46508789 13.15627197 9.46508789 14.01708984 10.13085938 C18.08750756 13.28140213 22.14634498 16.44694247 26.1953125 19.625 C27.75213057 20.8111471 29.3715121 21.9143414 31 23 C27.535 30.425 27.535 30.425 24 38 C20.52762498 35.68508332 17.19756487 33.46064864 13.90625 30.94140625 C13.18566406 30.39033203 12.46507812 29.83925781 11.72265625 29.27148438 C10.98917969 28.70751953 10.25570312 28.14355469 9.5 27.5625 C8.39978516 26.72235352 8.39978516 26.72235352 7.27734375 25.86523438 C3.10388679 22.66608177 -0.98639602 19.39759198 -5 16 C-4.80664062 15.43152344 -4.61328125 14.86304688 -4.4140625 14.27734375 C-2.81863577 9.54635062 -1.33099414 4.81205575 0 0 Z " fill="#049846" transform="translate(134,126)"/>
<path d="M0 0 C-0.86625 1.0209375 -0.86625 1.0209375 -1.75 2.0625 C-3.51228757 4.36326432 -4.62618055 6.20513684 -5.875 8.75 C-8 12 -8 12 -11.25 12.9375 C-12.1575 12.958125 -13.065 12.97875 -14 13 C-11.40462204 14.29768898 -10.56950831 13.77399581 -7.82421875 12.96875 C-6.99599609 12.73542969 -6.16777344 12.50210938 -5.31445312 12.26171875 C-3.57395809 11.75703989 -1.83435762 11.24926486 -0.09570312 10.73828125 C8.31455117 8.38002249 8.31455117 8.38002249 12 10 C14.01953125 12.03125 14.01953125 12.03125 15.8125 14.5 C16.71935547 15.72203125 16.71935547 15.72203125 17.64453125 16.96875 C19 19 19 19 19 20 C18.37657715 20.06993164 17.7531543 20.13986328 17.11083984 20.21191406 C-5.2506579 22.70518192 -5.2506579 22.70518192 -26 31 C-26.33 28.36 -26.66 25.72 -27 23 C-26.34 22.67 -25.68 22.34 -25 22 C-24.10468913 20.16534658 -23.25857474 18.30655618 -22.4375 16.4375 C-18.77161503 8.92690641 -13.73688681 3.5422836 -6.125 -0.0625 C-3 -1 -3 -1 0 0 Z " fill="#8D3227" transform="translate(93,92)"/>
<path d="M0 0 C0.66 0 1.32 0 2 0 C3.43680971 6.13909603 2.32637691 10.20377279 0 16 C2.297221 17.74271938 4.59866729 19.39911152 7 21 C7.495 22.485 7.495 22.485 8 24 C4.05593524 27.15525181 1.37304141 28.65048841 -3.8984375 28.40625 C-7.61826316 27.68717589 -10.76983054 25.92435628 -14 24 C-10.74820188 26.21713508 -7.5786304 28.34832443 -4 30 C-4 30.66 -4 31.32 -4 32 C-23.98403694 31.5314411 -23.98403694 31.5314411 -32 27 C-32.66 26.01 -33.32 25.02 -34 24 C-33.67 23.34 -33.34 22.68 -33 22 C-30.83696207 21.41813343 -28.64453862 20.9446268 -26.4453125 20.51953125 C-25.0947809 20.24024041 -23.74452819 19.95959824 -22.39453125 19.67773438 C-20.26154404 19.24078358 -18.1282254 18.81310932 -15.98876953 18.40893555 C-13.92597418 18.01485141 -11.8740835 17.58292193 -9.8203125 17.14453125 C-8.58555176 16.90065674 -7.35079102 16.65678223 -6.07861328 16.40551758 C-2.66908137 15.21982808 -2.66908137 15.21982808 -1.09204102 11.51806641 C-0.18506268 8.59618898 0.34572444 6.56876432 0.1875 3.5625 C0.125625 2.386875 0.06375 1.21125 0 0 Z " fill="#4C221C" transform="translate(114,124)"/>
<path d="M0 0 C5.43436966 0.3396481 9.15549387 3.41179428 13 7 C19.4228016 14.54607184 22.38329516 22.60401579 22 32.5 C21.34394738 38.59191717 19.72096597 44.05542797 16 49 C13.83203125 50.26953125 13.83203125 50.26953125 12 51 C12.2165625 50.09378906 12.433125 49.18757813 12.65625 48.25390625 C16.03113781 33.48877209 15.88009275 22.27648864 8 9 C5.64720648 5.71574863 2.93250367 2.77816137 0 0 Z " fill="#8B3126" transform="translate(111,93)"/>
<path d="M0 0 C7.73678143 0.39675802 13.66909891 5.30859069 18.8125 10.75 C25.15660146 18.58422762 26.74235723 26.23504626 26.44921875 36.2421875 C25.4137017 44.90451275 21.72803283 53.27463297 15 59 C6.5042337 65.16649915 6.5042337 65.16649915 2.953125 64.7734375 C0.8846667 63.95432801 -1.1269773 63.10501874 -3.125 62.125 C-3.80820313 61.79757813 -4.49140625 61.47015625 -5.1953125 61.1328125 C-7 60 -7 60 -9 57 C-4.23966942 58.85123967 -4.23966942 58.85123967 -2.1875 60.125 C1.17107647 61.46843059 4.43356372 61.50634589 8 61 C10.34261608 59.62073227 10.34261608 59.62073227 12 58 C12.66 58 13.32 58 14 58 C14 57.34 14 56.68 14 56 C13.34 55.67 12.68 55.34 12 55 C12.433125 54.06994141 12.433125 54.06994141 12.875 53.12109375 C17.21256524 42.77419333 17.6295543 31.80640662 13.9375 21.15625 C13.00195059 19.00448636 11.94196547 17.01971926 10.75 15 C9.88375 13.515 9.88375 13.515 9 12 C9.33 11.34 9.66 10.68 10 10 C16.97112377 19.04362003 20.02634715 28.50143281 19 40 C16.99178645 50.0164271 16.99178645 50.0164271 15 54 C21.1714168 48.4957634 22.99126163 43.68815267 23.875 35.6875 C24.40664193 25.81253388 21.61435737 17.44115204 15 10 C10.36351161 6.10653859 5.68739272 3.09855667 0 1 C0 0.67 0 0.34 0 0 Z " fill="#331D18" transform="translate(108,90)"/>
<path d="M0 0 C2.36591228 2.2843291 2.96257072 3.45103722 3.1875 6.75 C3.125625 7.4925 3.06375 8.235 3 9 C2.34 9 1.68 9 1 9 C0.525625 8.175 0.05125 7.35 -0.4375 6.5 C-0.953125 5.675 -1.46875 4.85 -2 4 C-2.99 4 -3.98 4 -5 4 C-6.36538938 6.73077876 -6.13231826 8.95560367 -6.125 12 C-6.12757813 13.0725 -6.13015625 14.145 -6.1328125 15.25 C-6.1872341 17.96182052 -6.1872341 17.96182052 -5 20 C-3.05000871 19.80528889 -3.05000871 19.80528889 -1 19 C0.28436734 17.0162233 0.28436734 17.0162233 1 15 C1.66 15 2.32 15 3 15 C2.39779006 21.38342541 2.39779006 21.38342541 0.75 23.9375 C-1.68310899 25.41474475 -3.20342824 25.41948576 -6 25 C-8.94657365 23.14474992 -9.87833099 20.40855968 -10.71484375 17.09765625 C-11.4328635 11.81578496 -10.82128684 6.74969806 -8.5625 1.9375 C-5.83683071 -1.44232991 -3.99350347 -1.26623281 0 0 Z " fill="#1C1C1C" transform="translate(156,77)"/>
<path d="M0 0 C1.34789347 0.98028616 2.68212715 1.97971135 4 3 C6.14733927 3.70514846 6.14733927 3.70514846 8 4 C8 4.66 8 5.32 8 6 C4.22849625 9.20577819 1.12848832 10.71267442 -3.90625 10.4609375 C-9.10000089 9.31753712 -13.09630264 6.35554604 -16 2 C-14.27507022 1.46530198 -12.544802 0.94780825 -10.8125 0.4375 C-9.36810547 0.00244141 -9.36810547 0.00244141 -7.89453125 -0.44140625 C-4.83268055 -1.03228972 -2.96505037 -0.89462727 0 0 Z " fill="#8C3127" transform="translate(114,142)"/>
<path d="M0 0 C2.39823944 1.27906103 3.47475729 2.68959953 4.875 5 C4.875 5.66 4.875 6.32 4.875 7 C5.535 7.33 6.195 7.66 6.875 8 C5.43246343 11.36591866 3.54235273 13.51047079 0.875 16 C1.535 17.32 2.195 18.64 2.875 20 C-0.125 19 -0.125 19 -2.125 16 C-2.125 15.01 -2.125 14.02 -2.125 13 C-2.74375 12.731875 -3.3625 12.46375 -4 12.1875 C-6.125 11 -6.125 11 -8.125 8 C-8.02325125 4.84578886 -7.07222856 3.94722856 -4.8125 1.6875 C-2.125 0 -2.125 0 0 0 Z " fill="#E4E4E4" transform="translate(84.125,189)"/>
<path d="M0 0 C-3.63026077 2.42017385 -7.30011201 3.58713532 -11.40625 5 C-14.17520145 5.95917541 -14.17520145 5.95917541 -17 8 C-17.36460453 10.66653905 -17.36460453 10.66653905 -17.1875 13.625 C-17.16042969 14.62789062 -17.13335937 15.63078125 -17.10546875 16.6640625 C-17.07066406 17.43492187 -17.03585938 18.20578125 -17 19 C-15.02 19.33 -13.04 19.66 -11 20 C-12.32 20.33 -13.64 20.66 -15 21 C-14.38125 21.928125 -13.7625 22.85625 -13.125 23.8125 C-11.0625 26.90625 -11.0625 26.90625 -9 30 C-5.93443402 30.73343428 -5.93443402 30.73343428 -3 31 C-3.66 31.66 -4.32 32.32 -5 33 C-3.75264433 33.6509259 -2.50198168 34.29551669 -1.25 34.9375 C-0.55390625 35.29714844 0.1421875 35.65679687 0.859375 36.02734375 C5.36884392 38.07635426 9.85265724 38.28013903 14.75 38.5625 C15.79607422 38.62727539 15.79607422 38.62727539 16.86328125 38.69335938 C18.57531922 38.79889596 20.28763561 38.8998991 22 39 C19.32066468 41.67933532 17.87077747 41.36114722 14.125 41.4375 C4.58982832 41.26892238 -4.25181995 37.95342977 -11.17578125 31.26171875 C-18.36437898 22.34908902 -21.2022441 13.48811028 -20 2 C-19.34 3.32 -18.68 4.64 -18 6 C-17.31292969 5.65066406 -16.62585938 5.30132812 -15.91796875 4.94140625 C-15.01691406 4.48636719 -14.11585937 4.03132813 -13.1875 3.5625 C-12.29417969 3.11003906 -11.40085937 2.65757813 -10.48046875 2.19140625 C-6.79003747 0.41883689 -4.05614073 -0.10962543 0 0 Z " fill="#2F2220" transform="translate(86,116)"/>
<path d="M0 0 C-0.86625 1.0209375 -0.86625 1.0209375 -1.75 2.0625 C-3.51228757 4.36326432 -4.62618055 6.20513684 -5.875 8.75 C-8 12 -8 12 -11.25 12.9375 C-12.1575 12.958125 -13.065 12.97875 -14 13 C-14 13.66 -14 14.32 -14 15 C-18.455 16.485 -18.455 16.485 -23 18 C-19.65179098 9.8478389 -14.22799485 3.72233836 -6.125 -0.0625 C-3 -1 -3 -1 0 0 Z " fill="#8A3126" transform="translate(93,92)"/>
<path d="M0 0 C0 0.33 0 0.66 0 1 C-0.65226562 1.01417969 -1.30453125 1.02835937 -1.9765625 1.04296875 C-8.40430621 1.39374532 -11.62479868 2.19794977 -16 7 C-17.86923203 10.14988873 -17.86923203 10.14988873 -19 13 C-13.555 12.01 -13.555 12.01 -8 11 C-7.505 11.99 -7.505 11.99 -7 13 C-10.10051447 13.8678228 -13.20586665 14.71686767 -16.3125 15.5625 C-17.63411133 15.9327832 -17.63411133 15.9327832 -18.98242188 16.31054688 C-19.82998047 16.53935547 -20.67753906 16.76816406 -21.55078125 17.00390625 C-22.72120972 17.32597046 -22.72120972 17.32597046 -23.9152832 17.65454102 C-26 18 -26 18 -29 17 C-28.67 16.01 -28.34 15.02 -28 14 C-28 14.66 -28 15.32 -28 16 C-25.12045356 15.65802544 -25.12045356 15.65802544 -22 14 C-20.45111899 11.77951746 -19.26279182 9.52626586 -18.078125 7.09375 C-17 5 -17 5 -15 3 C-22.03724888 4.71044244 -27.38464742 7.30088041 -32 13 C-34.71381763 17.47482965 -36.87970464 22.22270953 -39 27 C-39.33 27 -39.66 27 -40 27 C-39.64438913 18.64314451 -35.17801716 12.78264303 -29.1875 7.1875 C-19.82009356 -0.36969469 -11.58622373 -0.51178412 0 0 Z " fill="#321A11" transform="translate(107,89)"/>
<path d="M0 0 C-1.26953125 1.46484375 -2.5390625 2.9296875 -3.80859375 4.39453125 C-5.20871231 6.10712971 -5.20871231 6.10712971 -6 9 C-8.36328125 9.94921875 -8.36328125 9.94921875 -11.3125 10.6875 C-12.76076172 11.06455078 -12.76076172 11.06455078 -14.23828125 11.44921875 C-17 12 -17 12 -21 12 C-19.93872888 7.04740143 -18.00119811 4.29688458 -14.14453125 1.1953125 C-10.06330335 -1.07947027 -4.29205297 -2.14602648 0 0 Z " fill="#8A3228" transform="translate(109,90)"/>
<path d="M0 0 C3.3 0 6.6 0 10 0 C10 1.32 10 2.64 10 4 C7.69 4 5.38 4 3 4 C3 5.98 3 7.96 3 10 C4.98 10 6.96 10 9 10 C9 11.32 9 12.64 9 14 C7.02 14 5.04 14 3 14 C3 17.3 3 20.6 3 24 C2.01 24.33 1.02 24.66 0 25 C0 16.75 0 8.5 0 0 Z " fill="#222222" transform="translate(126,64)"/>
<path d="M0 0 C0.99 0.33 1.98 0.66 3 1 C3 7.6 3 14.2 3 21 C5.31 21 7.62 21 10 21 C10 22.32 10 23.64 10 25 C6.7 25 3.4 25 0 25 C-1.24497833 22.51004335 -1.12934372 20.81005089 -1.1328125 18.02734375 C-1.13410156 17.04572266 -1.13539062 16.06410156 -1.13671875 15.05273438 C-1.13285156 14.02470703 -1.12898438 12.99667969 -1.125 11.9375 C-1.12886719 10.90560547 -1.13273437 9.87371094 -1.13671875 8.81054688 C-1.13542969 7.83021484 -1.13414063 6.84988281 -1.1328125 5.83984375 C-1.13112061 4.48427368 -1.13112061 4.48427368 -1.12939453 3.10131836 C-1 1 -1 1 0 0 Z " fill="#2C2C2C" transform="translate(101,51)"/>
<path d="M0 0 C1.95496516 1.19130689 3.93875993 2.22493782 6 3.21875 C6 3.87875 6 4.53875 6 5.21875 C-9.03427691 5.18049484 -9.03427691 5.18049484 -12.9375 1.34375 C-15 -1.78125 -15 -1.78125 -15 -4.78125 C-8.66250537 -6.54166517 -5.2176878 -3.34258125 0 0 Z " fill="#8A3227" transform="translate(104,150.78125)"/>
<path d="M0 0 C0.99 0 1.98 0 3 0 C2.45276317 3.37462715 1.9451 5.08235 0 8 C0.5775 7.649375 1.155 7.29875 1.75 6.9375 C4.35801776 5.85082593 5.39417629 6.06934867 8 7 C6.6581656 11.02550319 4.5772427 11.88285636 1 14 C0.34 14 -0.32 14 -1 14 C-1 12 -1 12 1 10 C-0.65 10.33 -2.3 10.66 -4 11 C-3.7525 10.0409375 -3.7525 10.0409375 -3.5 9.0625 C-2.96073333 7.19173179 -2.96073333 7.19173179 -3 6 C-4.32 6.33 -5.64 6.66 -7 7 C-4.66666667 4.66666667 -2.33333333 2.33333333 0 0 Z " fill="#1C1C1C" transform="translate(61,161)"/>
<path d="M0 0 C-3.63026077 2.42017385 -7.30011201 3.58713532 -11.40625 5 C-14.17520145 5.95917541 -14.17520145 5.95917541 -17 8 C-17.36460453 10.66653905 -17.36460453 10.66653905 -17.1875 13.625 C-17.16042969 14.62789062 -17.13335937 15.63078125 -17.10546875 16.6640625 C-17.07066406 17.43492187 -17.03585938 18.20578125 -17 19 C-15.02 19.33 -13.04 19.66 -11 20 C-14.75 22 -14.75 22 -17 22 C-20.65111665 15.45841601 -20.29887594 9.36120371 -20 2 C-19.34 3.32 -18.68 4.64 -18 6 C-17.31292969 5.65066406 -16.62585938 5.30132812 -15.91796875 4.94140625 C-15.01691406 4.48636719 -14.11585937 4.03132813 -13.1875 3.5625 C-12.29417969 3.11003906 -11.40085937 2.65757813 -10.48046875 2.19140625 C-6.79003747 0.41883689 -4.05614073 -0.10962543 0 0 Z " fill="#371D19" transform="translate(86,116)"/>
<path d="M0 0 C-0.67097672 4.19360449 -2.8558394 7.40334352 -5 11 C-5.66 11 -6.32 11 -7 11 C-7.0825 10.05125 -7.165 9.1025 -7.25 8.125 C-7.65074923 4.89538209 -7.65074923 4.89538209 -10.0625 3.625 C-10.701875 3.41875 -11.34125 3.2125 -12 3 C-4.71428571 -0.42857143 -4.71428571 -0.42857143 0 0 Z " fill="#4C4C4C" transform="translate(99,207)"/>
<path d="M0 0 C2.39823944 1.27906103 3.47475729 2.68959953 4.875 5 C4.875 5.66 4.875 6.32 4.875 7 C3.885 6.67 2.895 6.34 1.875 6 C1.545 5.34 1.215 4.68 0.875 4 C-0.115 3.67 -1.105 3.34 -2.125 3 C-1.63 3.61875 -1.135 4.2375 -0.625 4.875 C0.875 7 0.875 7 0.875 9 C-0.115 8.67 -1.105 8.34 -2.125 8 C-2.455 7.34 -2.785 6.68 -3.125 6 C-3.785 6 -4.445 6 -5.125 6 C-4.465 8.31 -3.805 10.62 -3.125 13 C-5.6875 10.75 -5.6875 10.75 -8.125 8 C-8.25 5.9375 -8.25 5.9375 -7.125 4 C-3.125 0 -3.125 0 0 0 Z " fill="#2B2B2B" transform="translate(84.125,189)"/>
<path d="M0 0 C0.99 0.33 1.98 0.66 3 1 C0.03 3.475 0.03 3.475 -3 6 C-2.67 6.99 -2.34 7.98 -2 9 C1.0831351 7.80100302 4.06279492 6.52299523 7 5 C5.61725283 8.34163899 4.20955991 10.25766748 1 12 C-1.625 11.875 -1.625 11.875 -4 11 C-6 8 -6 8 -5.9375 6.0625 C-4.58240268 3.08128591 -2.72242608 1.75013105 0 0 Z " fill="#262626" transform="translate(69,172)"/>
<path d="M0 0 C0.66 0.33 1.32 0.66 2 1 C1.67 1.7425 1.34 2.485 1 3.25 C-0.22782871 6.13883312 -0.22782871 6.13883312 0 10 C-4.455 11.485 -4.455 11.485 -9 13 C-6.55221494 7.65113636 -4.39412654 3.90589026 0 0 Z " fill="#47201B" transform="translate(79,97)"/>
<path d="M0 0 C4.76033058 1.85123967 4.76033058 1.85123967 6.8125 3.125 C10.17215707 4.46886283 13.43262791 4.50440302 17 4 C19.4595774 2.66169042 19.4595774 2.66169042 21 1 C21.66 1.33 22.32 1.66 23 2 C17.13483146 6.88764045 17.13483146 6.88764045 14 8 C11.06450899 7.46459598 8.54602325 6.43512167 5.875 5.125 C5.19179687 4.79757813 4.50859375 4.47015625 3.8046875 4.1328125 C2 3 2 3 0 0 Z " fill="#341B16" transform="translate(99,147)"/>
<path d="M0 0 C3.71368887 1.23789629 4.77354181 2.85224877 7 6 C7 6.66 7 7.32 7 8 C6.278125 7.7525 5.55625 7.505 4.8125 7.25 C1.83172517 6.67590338 1.83172517 6.67590338 -0.6875 8.9375 C-1.450625 9.618125 -2.21375 10.29875 -3 11 C-3.66 11 -4.32 11 -5 11 C-3.55746343 7.63408134 -1.66735273 5.48952921 1 3 C0.67 2.01 0.34 1.02 0 0 Z " fill="#212121" transform="translate(76,180)"/>
<path d="M0 0 C1.39712274 1.95597184 2.73779907 3.95436401 4 6 C-0.98791571 5.52496041 -4.0232741 4.0298864 -8 1 C-8 0.67 -8 0.34 -8 0 C-4.71303767 -0.79953138 -3.28976808 -1.09658936 0 0 Z " fill="#863025" transform="translate(88,148)"/>
<path d="M0 0 C-1.3418344 4.02550319 -3.4227573 4.88285636 -7 7 C-7.66 7 -8.32 7 -9 7 C-9 5 -9 5 -7 3 C-7.66 2.67 -8.32 2.34 -9 2 C-8 0 -8 0 -6.1875 -0.6875 C-3.81180233 -1.02688538 -2.26664171 -0.72856341 0 0 Z " fill="#232323" transform="translate(69,168)"/>
<path d="M0 0 C-1.44253657 3.36591866 -3.33264727 5.51047079 -6 8 C-5.34 9.32 -4.68 10.64 -4 12 C-4.99 11.67 -5.98 11.34 -7 11 C-8.1875 8.4375 -8.1875 8.4375 -9 6 C-7.8803014 4.99406757 -6.7540588 3.9954151 -5.625 3 C-4.68527344 2.1646875 -4.68527344 2.1646875 -3.7265625 1.3125 C-2 0 -2 0 0 0 Z " fill="#1D1D1D" transform="translate(91,197)"/>
<path d="M0 0 C5.28 0 10.56 0 16 0 C16 0.33 16 0.66 16 1 C15.34773438 1.01417969 14.69546875 1.02835937 14.0234375 1.04296875 C7.57259411 1.39500593 4.52107744 2.36589562 0 7 C-0.66 7.66 -1.32 8.32 -2 9 C-1.40072174 5.64404172 -0.15377564 3.62198774 2 1 C1.34 0.67 0.68 0.34 0 0 Z " fill="#2F1B18" transform="translate(91,89)"/>
<path d="M0 0 C1.8125 0.1875 1.8125 0.1875 4 1 C5.75 3.5625 5.75 3.5625 7 6 C6.34 6.66 5.68 7.32 5 8 C4.01 7.67 3.02 7.34 2 7 C1.375 5.125 1.375 5.125 1 3 C0.67 2.01 0.34 1.02 0 0 Z " fill="#EDEDED" transform="translate(82,192)"/>
<path d="M0 0 C1 2 1 2 0.0625 5.125 C-0.288125 6.07375 -0.63875 7.0225 -1 8 C-2.65 8.33 -4.3 8.66 -6 9 C-2.25 2.25 -2.25 2.25 0 0 Z " fill="#883026" transform="translate(77,99)"/>
<path d="M0 0 C0.66 0 1.32 0 2 0 C1.32902328 4.19360449 -0.8558394 7.40334352 -3 11 C-3.66 11 -4.32 11 -5 11 C-4.67 9.35 -4.34 7.7 -4 6 C-3.34 6 -2.68 6 -2 6 C-1.34 4.02 -0.68 2.04 0 0 Z " fill="#171717" transform="translate(97,207)"/>
<path d="M0 0 C3.71368887 1.23789629 4.77354181 2.85224877 7 6 C7 6.66 7 7.32 7 8 C6.01 7.67 5.02 7.34 4 7 C4 6.34 4 5.68 4 5 C3.01 4.67 2.02 4.34 1 4 C0.3125 1.9375 0.3125 1.9375 0 0 Z " fill="#2F2F2F" transform="translate(76,180)"/>
<path d="M0 0 C0.99 0.33 1.98 0.66 3 1 C0.03 3.475 0.03 3.475 -3 6 C-3.66 5.34 -4.32 4.68 -5 4 C-2.6875 1.9375 -2.6875 1.9375 0 0 Z " fill="#1A1A1A" transform="translate(69,172)"/>
</svg>
